<svg preserveAspectRatio="none" width="1036" height="411" viewBox="0 0 1036 411" fill="none" xmlns="http://www.w3.org/2000/svg">
<path vector-effect="non-scaling-stroke" d="M0.5 10.0439C0.5 4.7943 4.75614 0.5 10 0.5H1026C1031.25 0.5 1035.5 4.7533 1035.5 10V401C1035.5 406.247 1031.25 410.5 1026 410.5H9.99999C4.75612 410.5 0.5 406.206 0.5 400.956V400.072V399.19V398.309V397.429V396.551V395.674V394.799V393.925V393.052V392.181V391.311V390.442V389.575V388.709V387.844V386.981V386.119V385.259V384.399V383.541V382.685V381.829V380.975V380.123V379.271V378.421V377.572V376.724V375.878V375.033V374.189V373.346V372.505V371.665V370.826V369.988V369.152V368.317V367.483V366.65V365.818V364.988V364.158V363.33V362.503V361.678V360.853V360.03V359.207V358.386V357.566V356.747V355.93V355.113V354.298V353.483V352.67V351.858V351.047V350.237V349.428V348.62V347.813V347.008V346.203V345.4V344.597V343.796V342.995V342.196V341.398V340.601V339.804V339.009V338.215V337.422V336.629V335.838V335.048V334.258V333.47V332.683V331.896V331.111V330.327V329.543V328.76V327.979V327.198V326.418V325.639V324.861V324.084V323.308V322.533V321.759V320.985V320.213V319.441V318.67V317.9V317.131V316.363V315.595V314.829V314.063V313.298V312.534V311.771V311.008V310.247V309.486V308.726V307.967V307.208V306.451V305.694V304.938V304.182V303.428V302.674V301.921V301.168V300.417V299.666V298.916V298.166V297.417V296.669V295.922V295.176V294.43V293.684V292.94V292.196V291.453V290.71V289.968V289.227V288.487V287.747V287.007V286.269V285.531V284.793V284.056V283.32V282.585V281.85V281.115V280.381V279.648V278.915V278.183V277.452V276.721V275.991V275.261V274.531V273.803V273.074V272.347V271.619V270.893V270.167V269.441V268.716V267.991V267.267V266.543V265.82V265.097V264.375V263.653V262.932V262.211V261.49V260.77V260.051V259.331V258.613V257.894V257.176V256.459V255.742V255.025V254.309V253.593V252.877V252.162V251.447V250.732V250.018V249.304V248.591V247.878V247.165V246.453V245.741V245.029V244.317V243.606V242.895V242.184V241.474V240.764V240.054V239.345V238.636V237.927V237.218V236.51V235.801V235.093V234.386V233.678V232.971V232.264V231.557V230.85V230.144V229.437V228.731V228.025V227.32V226.614V225.909V225.204V224.498V223.794V223.089V222.384V221.68V220.975V220.271V219.567V218.863V218.159V217.455V216.751V216.048V215.344V214.641V213.937V213.234V212.531V211.827V211.124V210.421V209.718V209.015V208.312V207.609V206.906V206.203V205.5V204.797V204.094V203.391V202.688V201.985V201.282V200.579V199.876V199.173V198.469V197.766V197.063V196.359V195.656V194.952V194.249V193.545V192.841V192.137V191.433V190.729V190.025V189.32V188.616V187.911V187.206V186.502V185.796V185.091V184.386V183.68V182.975V182.269V181.563V180.856V180.15V179.443V178.736V178.029V177.322V176.614V175.907V175.199V174.49V173.782V173.073V172.364V171.655V170.946V170.236V169.526V168.816V168.105V167.394V166.683V165.971V165.259V164.547V163.835V163.122V162.409V161.696V160.982V160.268V159.553V158.838V158.123V157.407V156.691V155.975V155.258V154.541V153.824V153.106V152.387V151.669V150.949V150.23V149.51V148.789V148.068V147.347V146.625V145.903V145.18V144.457V143.733V143.009V142.284V141.559V140.833V140.107V139.381V138.653V137.926V137.197V136.469V135.739V135.009V134.279V133.548V132.817V132.085V131.352V130.619V129.885V129.15V128.415V127.68V126.944V126.207V125.469V124.731V123.993V123.253V122.513V121.773V121.032V120.29V119.547V118.804V118.06V117.316V116.57V115.824V115.078V114.331V113.583V112.834V112.084V111.334V110.583V109.832V109.079V108.326V107.572V106.818V106.062V105.306V104.549V103.792V103.033V102.274V101.514V100.753V99.9916V99.2291V98.4659V97.7018V96.9369V96.1712V95.4046V94.6372V93.8689V93.0998V92.3299V91.559V90.7873V90.0147V89.2413V88.4669V87.6917V86.9156V86.1385V85.3606V84.5817V83.8019V83.0212V82.2396V81.457V80.6735V79.889V79.1036V78.3172V77.5299V76.7416V75.9523V75.162V74.3708V73.5785V72.7853V71.991V71.1958V70.3995V69.6022V68.8039V68.0045V67.2042V66.4027V65.6003V64.7967V63.9922V63.1865V62.3798V61.572V60.7631V59.9532V59.1421V58.33V57.5167V56.7024V55.8869V55.0703V54.2526V53.4338V52.6138V51.7927V50.9704V50.147V49.3224V48.4966V47.6697V46.8416V46.0124V45.1819V44.3503V43.5174V42.6834V41.8481V41.0117V40.174V39.3351V38.4949V37.6535V36.8109V35.9671V35.1219V34.2756V33.4279V32.579V31.7288V30.8774V30.0246V29.1706V28.3153V27.4586V26.6007V25.7414V24.8808V24.0189V23.1557V22.2911V21.4252V20.558V19.6894V18.8194V17.9481V17.0754V16.2013V15.3258V14.449V13.5708V12.6912V11.8101V10.9277V10.0439Z" fill="white" stroke="black"/>
</svg>
